<svg
        xmlns="http://www.w3.org/2000/svg"
        xmlns:xlink="http://www.w3.org/1999/xlink"
        width="13px" height="10px">
    <path fill-rule="evenodd" fill="rgb(51, 51, 51)"
          d="M0.510,3.664 C0.724,3.429 1.023,3.365 1.296,3.443 L3.974,6.390 C3.980,6.396 3.982,6.405 3.987,6.411 L4.277,6.731 C4.386,6.851 4.521,6.915 4.661,6.953 L4.861,7.173 L5.066,6.951 C5.204,6.913 5.337,6.849 5.444,6.731 L5.734,6.411 C5.740,6.405 5.741,6.397 5.747,6.390 L11.642,0.036 C11.921,-0.056 12.234,0.008 12.455,0.250 L12.745,0.570 C13.065,0.923 13.065,1.494 12.745,1.847 L5.747,9.390 C5.741,9.397 5.740,9.405 5.734,9.411 L5.444,9.730 C5.283,9.908 5.072,9.995 4.861,9.994 C4.650,9.995 4.438,9.908 4.277,9.730 L3.987,9.411 C3.982,9.405 3.980,9.396 3.974,9.390 L0.221,5.260 C-0.100,4.908 -0.100,4.336 0.221,3.983 L0.510,3.664 Z"/>
</svg>